<svg xmlns="http://www.w3.org/2000/svg" width="420" height="114" viewBox="0 0 420 114" role="img" aria-label="Регистр."><circle cx="53" cy="50" r="49" fill="none" stroke="#9b8258" stroke-width="1.6"/><path fill="#9b8258" d="M27.318008 15.692383Q38.884415 16.05957 42.051407 16.05957Q46.36586 16.05957 51.735977 15.830078Q57.427383 15.646484 58.758438 15.646484Q65.184219 15.646484 69.383926 16.977539Q73.583633 18.308594 76.33754 21.842773Q79.091446 25.376953 79.091446 30.379883Q79.091446 34.510742 77.163712 38.366211Q75.235977 42.22168 71.793594 44.929688Q68.351212 47.637695 64.817032 48.808105Q61.282852 49.978516 57.473282 49.978516Q54.627579 49.978516 51.139297 49.335938L50.359024 46.536133L50.77211 46.077148Q54.214493 46.857422 56.371719 46.857422Q62.384415 46.857422 66.03334 42.887207Q69.682266 38.916992 69.682266 32.720703Q69.682266 26.478516 65.895645 22.760742Q62.109024 19.042969 54.443985 19.042969Q50.267227 19.042969 45.264297 20.603516Q44.851212 24.137695 44.851212 37.677734L44.851212 58.928711L44.89711 67.878906Q44.943008 73.06543 45.172501 74.580078Q45.401993 76.094727 45.838028 76.599609Q46.274063 77.104492 47.513321 77.44873Q48.752579 77.792969 53.617813 77.976562L53.985001 78.251953L53.985001 80.546875L53.617813 80.914062Q41.913712 80.546875 40.444962 80.546875Q38.884415 80.546875 27.318008 80.914062L26.950821 80.546875L26.950821 78.251953L27.318008 77.976562Q31.586563 77.792969 33.009415 77.517578Q34.432266 77.242188 34.9142 76.806152Q35.396133 76.370117 35.694473 74.947266Q35.992813 73.524414 36.038712 68.613281L36.08461 58.928711L36.08461 37.677734L35.992813 28.727539Q35.946915 23.495117 35.740372 21.980469Q35.533829 20.46582 35.097794 19.960938Q34.661758 19.456055 33.422501 19.134766Q32.183243 18.813477 27.318008 18.629883L26.950821 18.308594L26.950821 16.013672L27.318008 15.692383Z"/><path fill="#38322e" d="M146.57422 73.799805L145.10547 77.104492Q140.33203 80.179688 136.59131 81.097656Q132.85059 82.015625 129.91309 82.015625Q124.40527 82.015625 119.47119 79.858398Q114.53711 77.701172 111.43896 72.560547Q108.34082 67.419922 108.34082 60.167969Q108.34082 55.348633 109.53418 51.470215Q110.72754 47.591797 112.03564 45.709961Q113.34375 43.828125 116.46484 41.533203Q119.58594 39.238281 123.07422 37.861328Q126.5625 36.484375 130.60156 36.484375Q136.10938 36.484375 140.30908 39.077637Q144.50879 41.670898 146.20703 45.709961Q147.90527 49.749023 147.90527 54.292969Q147.90527 55.71582 147.76758 57.046875L147.2627 57.551758Q144.1416 58.240234 138.86328 58.469727Q133.58496 58.699219 131.88672 58.699219L117.15332 58.699219Q117.24512 68.200195 121.92676 72.698242Q126.6084 77.196289 133.40137 77.196289Q136.61426 77.196289 139.57471 76.094727Q142.53516 74.993164 145.83984 73.019531L146.57422 73.799805ZM117.15332 55.027344Q117.97949 55.165039 123.51025 55.348633Q129.04102 55.532227 131.70312 55.532227Q138.08301 55.532227 139.45996 55.302734Q139.50586 54.201172 139.50586 53.604492Q139.50586 46.490234 136.61426 43.024902Q133.72266 39.55957 128.71973 39.55957Q123.25781 39.55957 120.20557 43.460938Q117.15332 47.362305 117.15332 55.027344ZM154.65234 38.044922L155.01953 37.723633Q159.79297 38.09082 164.7959 38.09082Q176.4082 38.09082 179.3916 37.999023Q182.375 37.907227 188.3418 37.448242L188.70898 37.81543Q187.97461 42.956055 187.65332 48.509766L187.33203 48.876953L185.77148 48.876953L185.4502 48.509766Q184.94531 44.791992 184.62402 43.69043Q184.30273 42.588867 183.68311 41.992188Q183.06348 41.395508 182.16846 41.188965Q181.27344 40.982422 178.51953 40.982422L169.79883 40.982422L169.43164 41.303711L169.43164 63.472656Q169.43164 74.258789 170.16602 75.911133Q170.90039 77.563477 176.22461 78.297852L176.5459 78.619141L176.5459 80.546875L176.22461 80.914062Q169.79883 80.546875 165.62207 80.546875Q161.35352 80.546875 155.01953 80.914062L154.65234 80.546875L154.65234 78.619141L155.01953 78.297852Q157.77344 77.884766 159.10449 77.379883Q160.43555 76.875 160.87158 76.209473Q161.30762 75.543945 161.42236 74.580078Q161.53711 73.616211 161.65186 69.600098Q161.7666 65.583984 161.7666 63.472656L161.7666 55.165039Q161.7666 44.333008 161.05518 42.680664Q160.34375 41.02832 155.01953 40.339844L154.65234 39.972656L154.65234 38.044922ZM192.28906 80.546875L192.28906 78.619141L192.65625 78.297852Q195.41016 77.884766 196.74121 77.379883Q198.07227 76.875 198.5083 76.209473Q198.94434 75.543945 199.05908 74.580078Q199.17383 73.616211 199.28857 69.600098Q199.40332 65.583984 199.40332 63.472656L199.40332 55.165039Q199.40332 44.333008 198.69189 42.680664Q197.98047 41.02832 192.65625 40.339844L192.28906 39.972656L192.28906 38.044922L192.65625 37.723633Q199.03613 38.09082 203.25879 38.09082Q207.34375 38.09082 213.86133 37.723633L214.18262 38.044922L214.18262 39.972656L213.86133 40.339844Q210.92383 40.75293 209.75342 41.234863Q208.58301 41.716797 208.12402 42.244629Q207.66504 42.772461 207.52734 43.552734Q207.38965 44.333008 207.229 48.532715Q207.06836 52.732422 207.06836 55.165039L207.06836 74.121094L207.80273 74.396484Q212.16309 67.878906 219.04785 56.151855Q225.93262 44.424805 229.55859 37.723633Q233.87305 38.09082 236.76465 38.09082Q239.74805 38.09082 244.1084 37.723633L244.47559 38.044922L244.47559 39.972656L244.1084 40.339844Q238.73828 41.02832 238.0498 42.749512Q237.36133 44.470703 237.36133 55.165039L237.36133 63.472656Q237.36133 74.258789 238.07275 75.911133Q238.78418 77.563477 244.1084 78.297852L244.47559 78.619141L244.47559 80.546875L244.1084 80.914062Q237.72852 80.546875 233.50586 80.546875Q229.4209 80.546875 222.90332 80.914062L222.53613 80.546875L222.53613 78.619141L222.90332 78.297852Q228.27344 77.563477 228.98486 75.865234Q229.69629 74.166992 229.69629 63.472656L229.69629 44.791992L228.96191 44.516602Q225.61133 49.473633 218.24463 62.233398Q210.87793 74.993164 207.89453 80.914062Q203.58008 80.546875 200.82617 80.546875Q197.84277 80.546875 192.65625 80.914062L192.28906 80.546875ZM287.89551 75.635742L286.05957 78.710938Q280.13867 81.969727 272.84082 81.969727Q262.74316 81.969727 257.23535 75.957031Q251.72754 69.944336 251.72754 60.443359Q251.72754 56.128906 252.66846 52.755371Q253.60938 49.381836 255.05518 47.178711Q256.50098 44.975586 258.24512 43.69043Q259.98926 42.405273 264.14307 40.110352Q268.29688 37.81543 270.4082 37.104004Q272.51953 36.392578 276.2373 36.392578Q283.35156 36.392578 287.89551 39.100586Q287.02344 44.287109 286.56445 50.666992L286.15137 51.03418L284.26953 51.03418L283.85645 50.621094Q283.67285 46.765625 283.35156 45.43457Q283.03027 44.103516 279.70264 42.588867Q276.375 41.074219 272.61133 41.074219Q268.84766 41.074219 265.91016 42.657715Q262.97266 44.241211 261.48096 47.844238Q259.98926 51.447266 259.98926 56.450195Q259.98926 60.672852 261.18262 64.688965Q262.37598 68.705078 264.32666 71.344238Q266.27734 73.983398 269.49023 75.589844Q272.70312 77.196289 276.65039 77.196289Q279.12891 77.196289 281.49268 76.553711Q283.85645 75.911133 286.93164 74.442383L287.89551 75.635742ZM291.52148 38.044922L291.88867 37.723633Q300.83887 38.182617 311.94629 38.182617Q323.2373 38.182617 332.00391 37.723633L332.3252 38.044922Q332.0498 44.103516 332.0498 48.280273L331.77441 48.555664L329.93848 48.555664L329.66309 48.280273Q329.06641 43.323242 328.69922 42.428223Q328.33203 41.533203 327.6665 41.257812Q327.00098 40.982422 325.07324 40.982422L315.75586 40.982422L315.57227 52.732422L315.57227 63.197266Q315.57227 66.59375 315.66406 71.114746Q315.75586 75.635742 316.21484 76.507812Q316.67383 77.379883 317.4541 77.678223Q318.23438 77.976562 321.63086 78.297852L321.99805 78.619141L321.99805 80.546875L321.63086 80.914062Q317.04102 80.546875 311.94629 80.546875Q306.62207 80.546875 302.26172 80.914062L301.89453 80.546875L301.89453 78.619141L302.26172 78.297852Q305.7041 77.976562 306.46143 77.678223Q307.21875 77.379883 307.67773 76.484863Q308.13672 75.589844 308.22852 72.032715Q308.32031 68.475586 308.32031 63.197266L308.32031 52.870117Q308.18262 46.90332 308.09082 40.982422L298.77344 40.982422Q296.7998 40.982422 296.13428 41.280762Q295.46875 41.579102 295.12451 42.565918Q294.78027 43.552734 294.18359 48.280273L293.9082 48.555664L292.11816 48.555664L291.79688 48.280273Q291.79688 46.444336 291.52148 38.044922ZM351.18945 36.254883L352.01562 36.805664Q351.55664 42.22168 351.51074 46.077148Q354.35645 43.415039 357.11035 41.05127Q359.86426 38.6875 360.85107 38.11377Q361.83789 37.540039 363.81152 37.126953Q365.78516 36.713867 368.67676 36.713867Q377.07617 36.713867 381.94141 41.92334Q386.80664 47.132812 386.80664 55.302734Q386.80664 58.699219 385.70508 62.1875Q384.60352 65.675781 382.83643 68.567383Q381.06934 71.458984 380.10547 72.262207Q379.1416 73.06543 374.73535 75.727539Q372.94531 76.783203 371.10938 78.114258Q368.49316 79.950195 367.68994 80.432129Q366.88672 80.914062 365.02783 81.350098Q363.16895 81.786133 361.01172 81.786133Q356.23828 81.786133 351.51074 79.353516L351.51074 87.936523Q351.51074 91.424805 351.71729 96.749023Q351.92383 102.07324 352.31396 102.78467Q352.7041 103.49609 353.41553 103.72559Q354.12695 103.95508 357.84473 104.27637L358.25781 104.64355L358.25781 106.57129L357.84473 106.98438Q352.33691 106.61719 347.65527 106.61719Q342.97363 106.61719 337.46582 106.98438L337.09863 106.57129L337.09863 104.64355L337.46582 104.27637Q340.9541 104.00098 341.66553 103.81738Q342.37695 103.63379 342.72119 103.24365Q343.06543 102.85352 343.27197 101.9585Q343.47852 101.06348 343.66211 95.578613Q343.8457 90.09375 343.8457 87.936523L343.8457 52.732422Q343.8457 50.666992 343.68506 47.431152Q343.52441 44.195312 343.38672 43.69043Q343.24902 43.185547 342.72119 42.841309Q342.19336 42.49707 340.44922 42.49707Q340.17383 42.49707 337.51172 42.405273L337.09863 42.038086L337.09863 40.064453L337.46582 39.651367Q345.68164 38.458008 351.18945 36.254883ZM351.51074 71.458984Q356.78906 76.783203 363.62793 76.783203Q370.65039 76.783203 374.6665 71.504883Q378.68262 66.226562 378.68262 58.607422Q378.68262 53.925781 376.91553 50.230957Q375.14844 46.536133 371.63721 44.516602Q368.12598 42.49707 364.3623 42.49707Q361.83789 42.49707 359.52002 43.39209Q357.20215 44.287109 355.22852 45.939453Q353.25488 47.591797 352.47461 48.96875Q351.69434 50.345703 351.60254 51.080078Q351.51074 51.814453 351.51074 53.650391L351.51074 71.458984Z"/><path fill="#9b8258" d="M402.37 70.40332Q404.57312 70.40332 406.20251 71.963867Q407.83191 73.524414 407.83191 75.911133Q407.83191 78.160156 406.22546 79.766602Q404.61902 81.373047 402.37 81.373047Q400.07507 81.373047 398.46863 79.789551Q396.86218 78.206055 396.86218 75.911133Q396.86218 73.616211 398.46863 72.009766Q400.07507 70.40332 402.37 70.40332Z"/></svg>